<?xml version="1.0" standalone="no"?>
<!DOCTYPE svg PUBLIC "-//W3C//DTD SVG 20010904//EN"
 "http://www.w3.org/TR/2001/REC-SVG-20010904/DTD/svg10.dtd">
<svg version="1.0" xmlns="http://www.w3.org/2000/svg"
 width="512.000000pt" height="512.000000pt" viewBox="0 0 512.000000 512.000000"
 preserveAspectRatio="xMidYMid meet">

<g transform="translate(0.000000,512.000000) scale(0.100000,-0.100000)"
fill="#000000" stroke="none">
<path d="M423 5106 c-198 -48 -371 -227 -412 -424 -16 -75 -16 -4169 0 -4244
42 -203 224 -385 427 -427 37 -8 660 -11 2125 -11 2283 0 2135 -4 2261 62 91
48 195 156 239 248 19 41 40 99 46 128 16 75 16 4169 0 4244 -41 197 -215 377
-410 423 -56 13 -322 15 -2144 14 -1643 -1 -2091 -3 -2132 -13z m2389 -651
c565 -75 1059 -380 1377 -853 155 -231 257 -490 308 -782 24 -135 24 -489 0
-620 -38 -210 -83 -352 -166 -525 -222 -464 -593 -810 -1063 -991 -106 -41
-159 -44 -193 -9 l-25 24 0 313 c0 399 -14 485 -95 591 l-34 44 87 13 c526 78
779 359 799 890 8 198 -21 327 -104 464 -20 33 -49 74 -65 92 l-29 33 18 58
c27 88 23 272 -8 378 l-24 80 -53 3 c-97 6 -257 -53 -417 -153 l-71 -44 -124
27 c-114 24 -145 26 -360 27 -233 0 -292 -6 -437 -41 l-63 -16 -72 46 c-163
101 -322 160 -420 154 l-53 -3 -24 -80 c-31 -106 -35 -290 -8 -378 l18 -58
-29 -33 c-147 -168 -201 -413 -157 -712 63 -423 307 -657 763 -731 l108 -18
-32 -42 c-34 -44 -68 -124 -79 -186 -7 -34 -11 -37 -69 -57 -92 -30 -178 -36
-256 -16 -98 25 -162 75 -246 192 -97 134 -173 190 -282 209 -53 9 -112 -9
-112 -35 0 -10 21 -36 47 -57 122 -99 168 -155 227 -275 46 -94 67 -126 111
-166 105 -97 207 -127 400 -119 72 2 138 8 148 12 16 7 17 -7 17 -199 0 -206
0 -207 -25 -231 -34 -35 -86 -32 -198 11 -352 136 -660 377 -895 702 -70 97
-208 367 -246 482 -78 235 -100 379 -100 640 0 292 33 473 130 720 262 662
856 1128 1564 1225 131 18 376 18 512 0z m-1474 -2788 c3 -14 -1 -18 -20 -15
-12 2 -24 11 -26 21 -3 14 1 18 20 15 12 -2 24 -11 26 -21z m81 -66 c15 -28
-11 -48 -33 -26 -9 9 -16 23 -16 31 0 21 38 17 49 -5z m83 -106 c8 -18 8 -29
1 -36 -17 -17 -53 7 -53 36 0 34 36 34 52 0z m90 -102 c35 -32 11 -66 -31 -43
-26 13 -29 60 -4 60 9 0 25 -7 35 -17z m156 -107 c3 -12 -4 -16 -25 -16 -30 0
-53 16 -53 36 0 33 71 14 78 -20z m302 24 c22 -14 0 -44 -34 -48 -30 -4 -45
20 -26 43 14 17 38 19 60 5z m-150 -26 c11 -12 11 -18 -3 -31 -21 -21 -67 -10
-67 16 0 31 49 42 70 15z"/>
</g>
</svg>
